<svg height="72.476" id="phamacy" viewBox="0 0 69.362 72.476" width="69.362"
    xmlns="http://www.w3.org/2000/svg">
    <g data-name="Group 10245" id="Group_10245" transform="translate(0 0)">
        <g data-name="Group 10221" id="Group_10221" transform="translate(0 3.114)">
            <g data-name="Group 10219" id="Group_10219">
                <path
                    d="M16.67,73.189c.044,0,.087,0,.131,0l.1,0,.044-.1a4.807,4.807,0,0,1,1.628-2.255l.055-.043V39.421h54.1V69.727l.08.039a4.853,4.853,0,0,1,2.453,2.765l.034.1.1,0c.053,0,.1,0,.141,0a6.417,6.417,0,0,1,.891.1,34.681,34.681,0,1,0-61.111.729,5.088,5.088,0,0,1,1.349-.265Z"
                    data-name="Path 1960" fill="#e8efff" id="Path_1960"
                    transform="translate(-11 -22)" />
            </g>
            <g data-name="Group 10220" id="Group_10220" transform="translate(15.126 60.566)">
                <path
                    d="M133.822,449.865v2.19a.567.567,0,0,1-.566.566h-15.4a34.671,34.671,0,0,0,42.63-2.756Z"
                    data-name="Path 1961" fill="#97d729" id="Path_1961"
                    transform="translate(-117.853 -449.865)" />
            </g>
        </g>
        <g data-name="Group 10244" id="Group_10244" transform="translate(2.456 0)">
            <g data-name="Group 10243" id="Group_10243">
                <g data-name="Group 10222" id="Group_10222" transform="translate(1.792 51.844)">
                    <path
                        d="M44.253,366.246a4.967,4.967,0,0,0-1.675,2.322c-.048,0-.1,0-.146,0a3.793,3.793,0,0,0-1.422.276,34.7,34.7,0,0,0,3.243,4.878v-7.472Z"
                        data-name="Path 1962" fill="#09a76d" id="Path_1962"
                        transform="translate(-41.01 -366.246)" />
                </g>
                <g data-name="Group 10223" id="Group_10223" transform="translate(59.415 50.753)">
                    <path
                        d="M448.08,367.105a34.7,34.7,0,0,0,3.627-5.6,3.811,3.811,0,0,0-.956-.121c-.049,0-.1,0-.146,0a4.971,4.971,0,0,0-2.525-2.846v8.564Z"
                        data-name="Path 1963" fill="#09a76d" id="Path_1963"
                        transform="translate(-448.08 -358.541)" />
                </g>
                <path
                    d="M63.919,144.068V183c.042.054.086.106.129.16H68.2V150.08a.567.567,0,0,1,.566-.566H84.974a.567.567,0,0,1,.566.566v33.077h32.63c.043-.053.086-.106.129-.16v-38.93Z"
                    data-name="Path 1964" fill="#fff" id="Path_1964"
                    transform="translate(-58.884 -123.675)" />
                <path
                    d="M68.059,150.08a.708.708,0,0,1,.708-.708h.815v-5.3H63.919V183c.042.054.086.106.129.16h4.011Z"
                    data-name="Path 1965" fill="#eaf6ff" id="Path_1965"
                    transform="translate(-58.884 -123.675)" />
                <path
                    d="M44.83,124.073v2.264a.708.708,0,0,0,.708.708h58.369a.708.708,0,0,0,.708-.708v-2.264Z"
                    data-name="Path 1966" fill="#4f66d0" id="Path_1966"
                    transform="translate(-42.497 -106.51)" />
                <path
                    d="M50.492,126.337v-2.264H44.83v2.264a.708.708,0,0,0,.708.708H51.2A.708.708,0,0,1,50.492,126.337Z"
                    data-name="Path 1967" fill="#314dc9" id="Path_1967"
                    transform="translate(-42.497 -106.51)" />
                <g data-name="Group 10224" id="Group_10224" transform="translate(0 7.597)">
                    <path
                        d="M51.864,53.67H29.058a.708.708,0,0,0-.708.708V63.07a.708.708,0,0,0,.708.708H51.864V53.67Z"
                        data-name="Path 1968" fill="#3190df" id="Path_1968"
                        transform="translate(-28.35 -53.67)" />
                    <path
                        d="M340.342,53.67H317.536V63.777h22.806a.708.708,0,0,0,.708-.708V54.378A.708.708,0,0,0,340.342,53.67Z"
                        data-name="Path 1969" fill="#3190df" id="Path_1969"
                        transform="translate(-276.6 -53.67)" />
                </g>
                <g data-name="Group 10225" id="Group_10225" transform="translate(2.316 9.913)">
                    <path
                        d="M65.908,70.031H45.418a.708.708,0,0,0-.708.708V74.8a.708.708,0,0,0,.708.708h20.49Z"
                        data-name="Path 1970" fill="#1d71b8" id="Path_1970"
                        transform="translate(-44.71 -70.031)" />
                    <path
                        d="M338.027,70.031H317.536v5.476h20.491a.708.708,0,0,0,.708-.708v-4.06A.708.708,0,0,0,338.027,70.031Z"
                        data-name="Path 1971" fill="#1d71b8" id="Path_1971"
                        transform="translate(-278.916 -70.031)" />
                </g>
                <path
                    d="M48.957,74.8v-4.06a.708.708,0,0,1,.708-.708H45.418a.708.708,0,0,0-.708.708V74.8a.708.708,0,0,0,.708.708h4.247A.708.708,0,0,1,48.957,74.8Z"
                    data-name="Path 1972" fill="#236298" id="Path_1972"
                    transform="translate(-42.394 -60.118)" />
                <g data-name="Group 10226" id="Group_10226" transform="translate(5.049 59.341)">
                    <path
                        d="M66.932,422.438h1.356v-3.227H64.021A34.822,34.822,0,0,0,66.932,422.438Z"
                        data-name="Path 1973" fill="#017b4e" id="Path_1973"
                        transform="translate(-64.021 -419.211)" />
                    <path
                        d="M216.658,419.211v3.227h1.417a.567.567,0,0,1,.566.566v.688h26.5a34.872,34.872,0,0,0,4.258-4.481Z"
                        data-name="Path 1974" fill="#017b4e" id="Path_1974"
                        transform="translate(-195.052 -419.211)" />
                </g>
                <g data-name="Group 10231" id="Group_10231" transform="translate(23.372)">
                    <g data-name="Group 10227" id="Group_10227" transform="translate(0 0)">
                        <path
                            d="M211.169,17.7h-17.7v-17A.708.708,0,0,1,194.172,0h16.289a.708.708,0,0,1,.708.708v17Z"
                            data-name="Path 1975" fill="#eaf6ff" id="Path_1975"
                            transform="translate(-193.464 0)" />
                    </g>
                    <path
                        d="M195.6,10.863v-3.4a.919.919,0,0,1,.695-.891V.708A.708.708,0,0,1,197,0h-2.831a.708.708,0,0,0-.708.708v17h2.831v-5.95a.919.919,0,0,1-.695-.891Z"
                        data-name="Path 1976" fill="#d8ecfe" id="Path_1976"
                        transform="translate(-193.463 0)" />
                    <g data-name="Group 10229" id="Group_10229" transform="translate(2.136 2.445)">
                        <g data-name="Group 10228" id="Group_10228">
                            <path
                                d="M221.067,21.367h-3.174V18.193a.92.92,0,0,0-.92-.92h-3.4a.92.92,0,0,0-.92.92v3.174h-3.174a.92.92,0,0,0-.92.92v3.4a.92.92,0,0,0,.92.92h3.174v3.174a.92.92,0,0,0,.92.92h3.4a.92.92,0,0,0,.92-.92V26.611h3.174a.92.92,0,0,0,.92-.92v-3.4a.92.92,0,0,0-.92-.92Z"
                                data-name="Path 1977" fill="#1d71b8" id="Path_1977"
                                transform="translate(-208.555 -17.273)" />
                        </g>
                    </g>
                    <g data-name="Group 10230" id="Group_10230" transform="translate(2.136 6.539)">
                        <path
                            d="M215.763,53.339a.92.92,0,0,1-.92-.92V49.953a.708.708,0,0,0-.708-.708h-2.466a.92.92,0,0,1-.92-.92V46.2h-1.274a.92.92,0,0,0-.92.92v3.4a.92.92,0,0,0,.92.92h3.174v3.174a.92.92,0,0,0,.92.92h3.4a.92.92,0,0,0,.92-.92V53.339h-2.13Z"
                            data-name="Path 1978" fill="#245985" id="Path_1978"
                            transform="translate(-208.555 -46.195)" />
                    </g>
                </g>
                <g data-name="Group 10242" id="Group_10242" transform="translate(7.821 25.698)">
                    <path
                        d="M110.787,218.409V182.246a.708.708,0,0,0-.708-.708H93.872a.708.708,0,0,0-.708.708v36.163Z"
                        data-name="Path 1979" fill="#09a76d" id="Path_1979"
                        transform="translate(-91.81 -181.538)" />
                    <g data-name="Group 10232" id="Group_10232" transform="translate(21.95)">
                        <path
                            d="M263.461,205.429H239.373a.708.708,0,0,1-.708-.708V182.246a.708.708,0,0,1,.708-.708h24.088a.708.708,0,0,1,.708.708v22.475A.708.708,0,0,1,263.461,205.429Z"
                            data-name="Path 1980" fill="#09a76d" id="Path_1980"
                            transform="translate(-238.665 -181.538)" />
                    </g>
                    <g data-name="Group 10233" id="Group_10233" transform="translate(24.266 2.316)">
                        <path
                            d="M255.026,216.733V198.324a.425.425,0,0,1,.425-.425h20.023a.425.425,0,0,1,.425.425v18.409a.425.425,0,0,1-.425.425H255.451A.425.425,0,0,1,255.026,216.733Z"
                            data-name="Path 1981" fill="#d8ecfe" id="Path_1981"
                            transform="translate(-255.026 -197.899)" />
                    </g>
                    <path
                        d="M258,216.733V198.324a.425.425,0,0,1,.425-.425h-2.972a.425.425,0,0,0-.425.425v18.409a.425.425,0,0,0,.425.425h2.972A.425.425,0,0,1,258,216.733Z"
                        data-name="Path 1982" fill="#c4e2ff" id="Path_1982"
                        transform="translate(-230.76 -195.583)" />
                    <g data-name="Group 10236" id="Group_10236" transform="translate(0 2.316)">
                        <g data-name="Group 10234" id="Group_10234" transform="translate(3.67)">
                            <path
                                d="M122.516,216.737V198.607a.708.708,0,0,0-.708-.708H110.233a.708.708,0,0,0-.708.708v18.131a.708.708,0,0,0,.708.708h11.575A.708.708,0,0,0,122.516,216.737Z"
                                data-name="Path 1983" fill="#d8ecfe" id="Path_1983"
                                transform="translate(-109.525 -197.899)" />
                        </g>
                        <path
                            d="M113.772,216.737V198.607a.708.708,0,0,1,.708-.708h-4.247a.708.708,0,0,0-.708.708v18.131a.708.708,0,0,0,.708.708h4.247A.708.708,0,0,1,113.772,216.737Z"
                            data-name="Path 1984" fill="#c4e2ff" id="Path_1984"
                            transform="translate(-105.855 -197.899)" />
                        <g data-name="Group 10235" id="Group_10235"
                            transform="translate(3.67 21.862)">
                            <path
                                d="M109.525,353.05v5.755a.708.708,0,0,0,.708.708h11.575a.708.708,0,0,0,.708-.708V353.05a.708.708,0,0,0-.708-.708H110.233A.708.708,0,0,0,109.525,353.05Z"
                                data-name="Path 1985" fill="#d8ecfe" id="Path_1985"
                                transform="translate(-109.525 -352.342)" />
                        </g>
                        <path
                            d="M113.772,358.805V353.05a.708.708,0,0,1,.708-.708h-4.247a.708.708,0,0,0-.708.708v5.755a.708.708,0,0,0,.708.708h4.247A.708.708,0,0,1,113.772,358.805Z"
                            data-name="Path 1986" fill="#c4e2ff" id="Path_1986"
                            transform="translate(-105.855 -330.48)" />
                        <path
                            d="M103.854,441.009H83.68a.671.671,0,0,0-.078.008,34.844,34.844,0,0,0,5.051,4.143h15.2a.708.708,0,0,0,.708-.708v-2.736A.708.708,0,0,0,103.854,441.009Z"
                            data-name="Path 1987" fill="#6c7fd8" id="Path_1987"
                            transform="translate(-83.602 -406.596)" />
                    </g>
                    <g data-name="Group 10239" id="Group_10239" transform="translate(30.568 6.131)">
                        <g data-name="Group 10237" id="Group_10237">
                            <path
                                d="M300.342,232.569l-.242-.242a1.9,1.9,0,0,1,0-2.672l4.25-4.25a1.9,1.9,0,0,1,2.672,0l.242.242a1.9,1.9,0,0,1,0,2.672l-4.25,4.25A1.9,1.9,0,0,1,300.342,232.569Z"
                                data-name="Path 1988" fill="#fff" id="Path_1988"
                                transform="translate(-299.548 -224.853)" />
                        </g>
                        <g data-name="Group 10238" id="Group_10238"
                            transform="translate(2.68 0.081)">
                            <path
                                d="M323.214,225.852a2.1,2.1,0,0,0-2.777.206l-1.953,1.953a.009.009,0,0,0,0,.013l2.9,2.9a.009.009,0,0,0,.013,0l2-2A2.066,2.066,0,0,0,323.214,225.852Z"
                                data-name="Path 1989" fill="#4f66d0" id="Path_1989"
                                transform="translate(-318.481 -225.422)" />
                        </g>
                    </g>
                    <g data-name="Group 10240" id="Group_10240"
                        transform="translate(29.493 16.426)">
                        <path
                            d="M301.311,299.7h-8.294a1.062,1.062,0,1,1,0-2.123h8.294a1.062,1.062,0,0,1,0,2.123Z"
                            data-name="Path 1990" fill="#6c7fd8" id="Path_1990"
                            transform="translate(-291.955 -297.575)" />
                    </g>
                    <g data-name="Group 10241" id="Group_10241" transform="translate(4.787 10.096)">
                        <path
                            d="M118.478,261a1.062,1.062,0,0,1-1.062-1.062v-6.021a1.062,1.062,0,1,1,2.123,0v6.021A1.062,1.062,0,0,1,118.478,261Z"
                            data-name="Path 1991" fill="#4f66d0" id="Path_1991"
                            transform="translate(-117.416 -252.857)" />
                    </g>
                </g>
            </g>
        </g>
    </g>
</svg>
